<?xml version="1.0" encoding="UTF-8" standalone="no"?>

<svg
  width="192mm"
  height="192mm"
  viewBox="0 0 192 192"
  version="1.1"
  id="svg5"
  xmlns:xlink="http://www.w3.org/1999/xlink"
  xmlns="http://www.w3.org/2000/svg">
  <defs id="defs2">
    <linearGradient id="linearGradient3523">
      <stop style="stop-color:#e600e6;stop-opacity:1;" offset="0" id="stop3519"/>
      <stop style="stop-color:#e6ffe6;stop-opacity:1;" offset="1" id="stop3521"/>
    </linearGradient>
    <linearGradient id="linearGradient3515">
      <stop style="stop-color:#e600e6;stop-opacity:1;" offset="0" id="stop3511"/>
      <stop style="stop-color:#e6ffe6;stop-opacity:1;" offset="0.96356302" id="stop3513"/>
    </linearGradient>
    <linearGradient id="linearGradient3189">
      <stop style="stop-color:#ff00ff;stop-opacity:1;" offset="0.65271693" id="stop3185"/>
      <stop style="stop-color:#ff00ff;stop-opacity:0;" offset="1" id="stop3187"/>
    </linearGradient>
    <linearGradient id="linearGradient3181">
      <stop style="stop-color:#ffffff;stop-opacity:1;" offset="0" id="stop3179"/>
    </linearGradient>
    <rect x="144.13737" y="216.29622" width="34.743176" height="47.602768" id="rect348"/>
    <radialGradient
      xlink:href="#linearGradient3189"
      id="radialGradient3193"
      cx="95.164558"
      cy="95.220322"
      fx="95.164558"
      fy="95.220322"
      r="88.504845"
      gradientTransform="matrix(1.0085052,0,0,1.0850318,-0.17506413,-6.6838548)"
      gradientUnits="userSpaceOnUse"/>
    <linearGradient
      xlink:href="#linearGradient3515"
      id="linearGradient3517"
      x1="24.463425"
      y1="86.524757"
      x2="112.31953"
      y2="86.524757"
      gradientUnits="userSpaceOnUse"/>
    <linearGradient
      xlink:href="#linearGradient3523"
      id="linearGradient3525"
      x1="24.463425"
      y1="86.524757"
      x2="112.31953"
      y2="86.524757"
      gradientUnits="userSpaceOnUse"/>
  </defs>
  <g id="layer1">
    <g id="g264">
      <g id="g1254">
        <rect
          style="fill:url(#radialGradient3193);fill-opacity:1;stroke:none;stroke-width:1.78582;stroke-linecap:round;stroke-linejoin:round;stroke-opacity:1"
          id="rect354"
          width="178.51521"
          height="192.06114"
          x="6.5412917"
          y="0.60264713"/>
        <ellipse
          style="fill:#000000;fill-opacity:1;stroke:#d48c00;stroke-width:1.37216;stroke-linecap:round;stroke-linejoin:round;stroke-dasharray:none;stroke-opacity:1"
          id="path1419"
          cx="95.662621"
          cy="97.657509"
          rx="55.301544"
          ry="66.934013"/>
        <g
          aria-label="B"
          transform="matrix(0,2.485872,-4.1240359,0,1066.5147,-300.15831)"
          id="text346"
          style="font-size:40px;line-height:1.25;font-family:'Comic Sans MS';white-space:pre;shape-inside:url(#rect348);display:inline;fill:#d48c00">
          <g id="g1427">
            <path
              style="fill:url(#linearGradient3517);fill-opacity:1;stroke-width:0.0957792;stroke-linecap:round;stroke-linejoin:round"
              id="path292"
              d="M 112.31953,129.87956 25.036677,130.45281 24.463425,43.169955 111.74628,42.596703 Z"
              transform="matrix(0.14719355,0,0,0.10133399,147.60121,234.38274)"/>
            <path
              style="fill:url(#linearGradient3525);fill-opacity:1;stroke-width:0.0957792;stroke-linecap:round;stroke-linejoin:round"
              id="path292-9"
              d="M 112.31953,129.87956 25.036677,130.45281 24.463425,43.169955 111.74628,42.596703 Z"
              transform="matrix(0.1202354,0,0,0.13363623,148.82985,217.91829)"/>
            <path
              d="m 161.44141,249.83106 q -4.39454,1.71875 -11.23047,1.71875 -0.83985,0 -1.60157,-0.80078 -0.74218,-0.78125 -0.74218,-1.62109 v -5.6836 q 0,-2.79297 0.35156,-7.96875 0.39062,-5.58594 0.42969,-8.08594 -0.0195,-1.79687 0.21484,-5.35156 0.13672,-0.97656 0.64453,-1.28906 2.65625,-0.82031 6.03516,-0.82031 3.4375,0 6.60156,2.34375 3.65234,2.69531 3.65234,6.66015 0,5.01953 -3.90625,7.91016 2.92969,1.25 4.375,2.77344 1.46485,1.52343 1.46485,3.32031 0,2.36328 -2.5586,4.57031 -1.77734,1.5625 -3.73046,2.32422 z m -5.89844,-25.91797 q -2.12891,0 -2.98828,0.13672 l -0.0391,3.41797 -0.39062,7.55859 q 2.77344,0.23438 2.96875,0.21485 2.94922,-0.23438 4.82422,-1.83594 2.01172,-1.73828 2.01172,-4.47266 0,-1.85547 -2.05078,-3.4375 -2.05079,-1.58203 -4.33594,-1.58203 z m 2.1875,15.64453 -2.07031,-0.33203 q -0.25391,0 -0.78125,0.0391 -0.50782,0.0195 -0.78125,0.0195 -1.05469,0 -2.2461,-0.17579 -0.11719,2.46094 -0.11719,4.39454 v 4.04296 q 5.11719,-0.17578 8.33985,-1.44531 1.36719,-0.52734 2.61719,-1.64062 1.1914,-1.01563 1.1914,-1.52344 0,-0.91797 -2.5,-2.07031 -1.875,-0.87891 -3.65234,-1.3086 z"
              id="path1285"/>
          </g>
        </g>
      </g>
    </g>
  </g>
</svg>
